<?xml version="1.0" encoding="UTF-8"?>
<!DOCTYPE svg PUBLIC "-//W3C//DTD SVG 1.1//EN" "http://www.w3.org/Graphics/SVG/1.1/DTD/svg11.dtd">
<svg xmlns="http://www.w3.org/2000/svg" version="1.1" width="180px" height="180px" style="shape-rendering:geometricPrecision; text-rendering:geometricPrecision; image-rendering:optimizeQuality; fill-rule:evenodd; clip-rule:evenodd" xmlns:xlink="http://www.w3.org/1999/xlink">
<g><path style="opacity:0.999" fill="#fcbd8a" d="M 87.5,6.5 C 91.1667,6.5 94.8333,6.5 98.5,6.5C 104.964,6.28571 110.964,7.61904 116.5,10.5C 114.833,10.5 113.167,10.5 111.5,10.5C 107.947,9.43854 104.281,8.43854 100.5,7.5C 98.1432,7.33669 95.8098,7.50335 93.5,8C 94.5,8.33333 95.5,8.66667 96.5,9C 95.1095,10.02 93.6095,10.8534 92,11.5C 90.9234,15.3812 89.4234,19.3812 87.5,23.5C 86.8763,25.8337 86.043,28.1671 85,30.5C 82.9937,27.4642 82.1604,24.1309 82.5,20.5C 81.325,20.719 80.325,20.3857 79.5,19.5C 80.9056,17.974 82.0723,16.3073 83,14.5C 83.6838,13.2161 83.5171,12.0495 82.5,11C 83.6226,9.95627 84.9559,9.28961 86.5,9C 87.2524,8.32924 87.5858,7.4959 87.5,6.5 Z"/></g>
<g><path style="opacity:0.999" fill="#fdac76" d="M 100.5,7.5 C 104.281,8.43854 107.947,9.43854 111.5,10.5C 107.675,16.4518 104.342,23.1185 101.5,30.5C 101.608,31.4419 101.941,32.2753 102.5,33C 104.473,33.4955 106.473,33.6621 108.5,33.5C 107.486,34.6737 106.153,35.3404 104.5,35.5C 102.833,35.5 101.167,35.5 99.5,35.5C 97.7375,27.6653 97.5709,19.6653 99,11.5C 103.665,10.2609 103.498,9.42761 98.5,9C 99.4158,8.72158 100.082,8.22158 100.5,7.5 Z"/></g>
<g><path style="opacity:0.996" fill="#ef8b5f" d="M 151.5,26.5 C 149.259,25.7002 148.259,24.0336 148.5,21.5C 147.5,21.5 146.5,21.5 145.5,21.5C 145.33,20.1779 145.663,19.0113 146.5,18C 142.529,18.0451 138.862,19.2118 135.5,21.5C 134.359,19.4513 134.359,17.4513 135.5,15.5C 138.025,15.0233 140.025,13.6899 141.5,11.5C 145.236,8.10018 149.236,7.76684 153.5,10.5C 154.063,11.9385 154.397,13.4385 154.5,15C 153.423,18.8083 152.423,22.6416 151.5,26.5 Z"/></g>
<g><path style="opacity:1" fill="#facba1" d="M 98.5,6.5 C 94.8333,6.5 91.1667,6.5 87.5,6.5C 81.3274,6.85394 75.3274,8.02061 69.5,10C 69.1667,10.3333 68.8333,10.6667 68.5,11C 70.0441,11.2896 71.3774,11.9563 72.5,13C 70.8551,15.3317 69.5217,18.3317 68.5,22C 68.6107,23.7215 69.1107,23.8882 70,22.5C 71.6695,26.426 73.5028,30.2594 75.5,34C 75.1667,34.3333 74.8333,34.6667 74.5,35C 76.0036,38.1841 77.5036,41.3507 79,44.5C 82.571,45.783 86.071,46.4496 89.5,46.5C 88.8333,47.8333 87.8333,48.8333 86.5,49.5C 84.8762,49.3601 83.7096,50.0267 83,51.5C 81.4478,50.0339 79.6145,49.0339 77.5,48.5C 76.8281,47.0508 76.1614,45.7175 75.5,44.5C 74.6016,43.8423 73.6016,43.1757 72.5,42.5C 72.7093,41.914 73.0426,41.414 73.5,41C 71.7725,41.5258 70.1059,41.3591 68.5,40.5C 68.747,37.495 67.747,34.995 65.5,33C 66.3081,32.6924 66.9747,32.1924 67.5,31.5C 66.3112,30.5713 64.9778,30.238 63.5,30.5C 62.6645,25.3079 62.3312,20.4745 62.5,16C 63.3279,15.0853 64.3279,14.4186 65.5,14C 63.8333,13.6667 62.1667,13.3333 60.5,13C 63.1739,12.3299 65.5073,11.1632 67.5,9.5C 67.9175,8.77842 68.5842,8.27842 69.5,8C 79.2429,5.70165 88.9096,5.20165 98.5,6.5 Z"/></g>
<g><path style="opacity:1" fill="#fdb381" d="M 100.5,7.5 C 100.082,8.22158 99.4158,8.72158 98.5,9C 103.498,9.42761 103.665,10.2609 99,11.5C 97.5709,19.6653 97.7375,27.6653 99.5,35.5C 101.167,35.5 102.833,35.5 104.5,35.5C 102.833,36.8333 101.167,38.1667 99.5,39.5C 97.7673,40.0076 97.434,40.841 98.5,42C 91.8543,42.2152 90.1876,39.3818 93.5,33.5C 93.1084,31.1286 92.1084,30.4619 90.5,31.5C 88.0181,29.4973 87.0181,26.8306 87.5,23.5C 89.4234,19.3812 90.9234,15.3812 92,11.5C 93.6095,10.8534 95.1095,10.02 96.5,9C 95.5,8.66667 94.5,8.33333 93.5,8C 95.8098,7.50335 98.1432,7.33669 100.5,7.5 Z"/></g>
<g><path style="opacity:0.999" fill="#fad0a7" d="M 67.5,9.5 C 65.5073,11.1632 63.1739,12.3299 60.5,13C 62.1667,13.3333 63.8333,13.6667 65.5,14C 64.3279,14.4186 63.3279,15.0853 62.5,16C 62.3312,20.4745 62.6645,25.3079 63.5,30.5C 64.9778,30.238 66.3112,30.5713 67.5,31.5C 66.9747,32.1924 66.3081,32.6924 65.5,33C 67.747,34.995 68.747,37.495 68.5,40.5C 64.6787,40.8971 61.6787,39.5638 59.5,36.5C 58.2132,33.578 59.2132,31.7446 62.5,31C 59.8333,29.3333 57.1667,27.6667 54.5,26C 55.1667,24.6667 55.8333,23.3333 56.5,22C 55.1667,21 53.8333,20 52.5,19C 54.3757,18.0816 55.3757,16.5816 55.5,14.5C 56.0577,13.2101 57.0577,12.3768 58.5,12C 61.3527,10.5699 64.3527,9.73656 67.5,9.5 Z"/></g>
<g><path style="opacity:0.753" fill="#d59a7e" d="M 116.5,10.5 C 121.202,11.6838 125.535,13.6838 129.5,16.5C 133.262,14.2865 137.262,12.6198 141.5,11.5C 140.025,13.6899 138.025,15.0233 135.5,15.5C 133.325,15.6822 131.325,16.3489 129.5,17.5C 126.627,15.8974 123.627,14.5641 120.5,13.5C 118.924,12.8571 117.59,11.8571 116.5,10.5 Z"/></g>
<g><path style="opacity:1" fill="#fcc194" d="M 87.5,6.5 C 87.5858,7.4959 87.2524,8.32924 86.5,9C 84.9559,9.28961 83.6226,9.95627 82.5,11C 83.5171,12.0495 83.6838,13.2161 83,14.5C 82.0723,16.3073 80.9056,17.974 79.5,19.5C 80.325,20.3857 81.325,20.719 82.5,20.5C 82.1604,24.1309 82.9937,27.4642 85,30.5C 86.043,28.1671 86.8763,25.8337 87.5,23.5C 87.0181,26.8306 88.0181,29.4973 90.5,31.5C 92.1084,30.4619 93.1084,31.1286 93.5,33.5C 90.1876,39.3818 91.8543,42.2152 98.5,42C 97.434,40.841 97.7673,40.0076 99.5,39.5C 100.778,41.8226 101.778,44.3226 102.5,47C 101.824,48.6833 100.824,48.8499 99.5,47.5C 99.1667,47.5 98.8333,47.5 98.5,47.5C 97.5213,45.8546 96.188,44.5213 94.5,43.5C 92.9713,44.7629 91.3046,45.7629 89.5,46.5C 86.071,46.4496 82.571,45.783 79,44.5C 77.5036,41.3507 76.0036,38.1841 74.5,35C 74.8333,34.6667 75.1667,34.3333 75.5,34C 73.5028,30.2594 71.6695,26.426 70,22.5C 69.1107,23.8882 68.6107,23.7215 68.5,22C 69.5217,18.3317 70.8551,15.3317 72.5,13C 71.3774,11.9563 70.0441,11.2896 68.5,11C 68.8333,10.6667 69.1667,10.3333 69.5,10C 75.3274,8.02061 81.3274,6.85394 87.5,6.5 Z"/></g>
<g><path style="opacity:1" fill="#fda36e" d="M 111.5,10.5 C 113.167,10.5 114.833,10.5 116.5,10.5C 117.59,11.8571 118.924,12.8571 120.5,13.5C 118.015,17.0836 116.349,21.0836 115.5,25.5C 114.325,25.281 113.325,25.6143 112.5,26.5C 113.85,27.9501 115.516,28.6168 117.5,28.5C 114.728,30.3904 111.728,32.057 108.5,33.5C 106.473,33.6621 104.473,33.4955 102.5,33C 101.941,32.2753 101.608,31.4419 101.5,30.5C 104.342,23.1185 107.675,16.4518 111.5,10.5 Z"/></g>
<g><path style="opacity:0.996" fill="#fb9560" d="M 120.5,13.5 C 123.627,14.5641 126.627,15.8974 129.5,17.5C 131.325,16.3489 133.325,15.6822 135.5,15.5C 134.359,17.4513 134.359,19.4513 135.5,21.5C 129.489,23.8399 123.489,26.1732 117.5,28.5C 115.516,28.6168 113.85,27.9501 112.5,26.5C 113.325,25.6143 114.325,25.281 115.5,25.5C 116.349,21.0836 118.015,17.0836 120.5,13.5 Z"/></g>
<g><path style="opacity:1" fill="#fcd4b0" d="M 55.5,14.5 C 55.3757,16.5816 54.3757,18.0816 52.5,19C 53.8333,20 55.1667,21 56.5,22C 55.8333,23.3333 55.1667,24.6667 54.5,26C 57.1667,27.6667 59.8333,29.3333 62.5,31C 59.2132,31.7446 58.2132,33.578 59.5,36.5C 61.6787,39.5638 64.6787,40.8971 68.5,40.5C 70.1059,41.3591 71.7725,41.5258 73.5,41C 73.0426,41.414 72.7093,41.914 72.5,42.5C 73.6016,43.1757 74.6016,43.8423 75.5,44.5C 76.1614,45.7175 76.8281,47.0508 77.5,48.5C 79.6145,49.0339 81.4478,50.0339 83,51.5C 83.7096,50.0267 84.8762,49.3601 86.5,49.5C 85.1667,51.5 83.5,53.1667 81.5,54.5C 77.1703,55.2682 73.837,53.9349 71.5,50.5C 70.914,50.7093 70.414,51.0426 70,51.5C 65.6669,47.3603 60.5002,44.6937 54.5,43.5C 51.8624,38.1833 49.1957,32.8499 46.5,27.5C 45.5224,27.0233 44.6891,26.3567 44,25.5C 42.2591,26.7577 40.4258,27.7577 38.5,28.5C 41.5271,24.8062 44.8604,21.4729 48.5,18.5C 50.3356,16.412 52.6689,15.0787 55.5,14.5 Z"/></g>
<g><path style="opacity:1" fill="#fdddba" d="M 54.5,43.5 C 53.8333,43.5 53.5,43.8333 53.5,44.5C 52.6618,44.8417 52.3284,45.5084 52.5,46.5C 51.5041,46.4142 50.6708,46.7476 50,47.5C 49.1253,44.7854 47.2919,43.4521 44.5,43.5C 42.7713,41.2733 40.438,40.2733 37.5,40.5C 37.3083,37.3992 36.6416,34.3992 35.5,31.5C 36.1882,30.1451 37.1882,29.1451 38.5,28.5C 40.4258,27.7577 42.2591,26.7577 44,25.5C 44.6891,26.3567 45.5224,27.0233 46.5,27.5C 49.1957,32.8499 51.8624,38.1833 54.5,43.5 Z"/></g>
<g><path style="opacity:1" fill="#0f2a4e" d="M 135.5,21.5 C 135.167,23.5 134.833,25.5 134.5,27.5C 131.193,28.2875 128.193,29.7875 125.5,32C 126.337,33.0113 126.67,34.1779 126.5,35.5C 119.858,41.1373 113.192,46.8039 106.5,52.5C 106.167,52.5 105.833,52.5 105.5,52.5C 103.119,51.2495 101.119,49.5828 99.5,47.5C 100.824,48.8499 101.824,48.6833 102.5,47C 101.778,44.3226 100.778,41.8226 99.5,39.5C 101.167,38.1667 102.833,36.8333 104.5,35.5C 106.153,35.3404 107.486,34.6737 108.5,33.5C 111.728,32.057 114.728,30.3904 117.5,28.5C 123.489,26.1732 129.489,23.8399 135.5,21.5 Z"/></g>
<g><path style="opacity:0.988" fill="#283d5d" d="M 90.5,31.5 C 91.9757,33.2296 91.6424,34.5629 89.5,35.5C 86.8061,33.5365 87.1394,32.2032 90.5,31.5 Z"/></g>
<g><path style="opacity:1" fill="#091d42" d="M 145.5,21.5 C 144.262,23.2143 143.595,25.2143 143.5,27.5C 140.085,37.0062 136.085,46.3395 131.5,55.5C 130.833,55.8333 130.167,56.1667 129.5,56.5C 126.18,55.7026 122.846,55.0359 119.5,54.5C 119.056,52.8868 118.056,51.7202 116.5,51C 118.219,49.9431 120.053,49.1097 122,48.5C 122.765,46.9343 122.598,45.6009 121.5,44.5C 122.737,41.7554 124.57,39.4221 127,37.5C 127.692,36.5632 127.525,35.8966 126.5,35.5C 126.67,34.1779 126.337,33.0113 125.5,32C 128.193,29.7875 131.193,28.2875 134.5,27.5C 134.833,25.5 135.167,23.5 135.5,21.5C 138.862,19.2118 142.529,18.0451 146.5,18C 145.663,19.0113 145.33,20.1779 145.5,21.5 Z"/></g>
<g><path style="opacity:1" fill="#fdeacf" d="M 30.5,37.5 C 33.3613,37.5126 34.3613,38.6793 33.5,41C 34.5786,41.956 35.7453,42.7894 37,43.5C 37.1858,45.9005 37.6858,48.2338 38.5,50.5C 40.0701,50.6938 41.5701,50.6938 43,50.5C 43.5324,53.8647 45.3658,56.1981 48.5,57.5C 47.675,58.3857 46.675,58.719 45.5,58.5C 39.1711,58.4165 33.1711,57.0831 27.5,54.5C 27.8723,51.6169 27.8723,48.6169 27.5,45.5C 28.2245,43.2152 29.5578,41.3819 31.5,40C 30.7476,39.3292 30.4142,38.4959 30.5,37.5 Z"/></g>
<g><path style="opacity:1" fill="#e14f65" d="M 143.5,27.5 C 143.833,37.154 141.833,46.154 137.5,54.5C 133.551,61.4493 128.218,67.116 121.5,71.5C 121.5,71.1667 121.5,70.8333 121.5,70.5C 123.295,67.5355 125.295,64.7022 127.5,62C 124.461,59.4899 121.461,56.9899 118.5,54.5C 118.833,54.5 119.167,54.5 119.5,54.5C 122.846,55.0359 126.18,55.7026 129.5,56.5C 130.167,56.1667 130.833,55.8333 131.5,55.5C 136.085,46.3395 140.085,37.0062 143.5,27.5 Z"/></g>
<g><path style="opacity:1" fill="#f9e3ca" d="M 48.5,18.5 C 44.8604,21.4729 41.5271,24.8062 38.5,28.5C 37.1882,29.1451 36.1882,30.1451 35.5,31.5C 36.6416,34.3992 37.3083,37.3992 37.5,40.5C 40.438,40.2733 42.7713,41.2733 44.5,43.5C 48.9796,48.9487 54.6463,52.9487 61.5,55.5C 62.2975,55.9569 62.6309,56.6236 62.5,57.5C 61.2625,58.7434 61.5959,59.7434 63.5,60.5C 64.3857,59.675 64.719,58.675 64.5,57.5C 66.4663,58.2545 66.7996,59.4212 65.5,61C 67.4188,62.9338 68.9188,62.7671 70,60.5C 70.7914,61.745 71.2914,63.0783 71.5,64.5C 69.0659,68.3817 66.3993,72.0484 63.5,75.5C 60.4527,74.0818 57.286,72.0818 54,69.5C 53.8138,66.9644 53.3138,64.631 52.5,62.5C 51.0087,59.9093 48.6753,58.9093 45.5,59.5C 45.5,59.1667 45.5,58.8333 45.5,58.5C 46.675,58.719 47.675,58.3857 48.5,57.5C 45.3658,56.1981 43.5324,53.8647 43,50.5C 41.5701,50.6938 40.0701,50.6938 38.5,50.5C 37.6858,48.2338 37.1858,45.9005 37,43.5C 35.7453,42.7894 34.5786,41.956 33.5,41C 34.3613,38.6793 33.3613,37.5126 30.5,37.5C 30.5569,36.391 30.8902,35.391 31.5,34.5C 35.8805,27.7858 41.5471,22.4524 48.5,18.5 Z"/></g>
<g><path style="opacity:1" fill="#1e395a" d="M 75.5,44.5 C 75.5,45.5 75.5,46.5 75.5,47.5C 74.5,47.5 73.5,47.5 72.5,47.5C 72.5,46.5 72.5,45.5 72.5,44.5C 73.5,44.5 74.5,44.5 75.5,44.5 Z"/></g>
<g><path style="opacity:1" fill="#e77c62" d="M 126.5,35.5 C 127.525,35.8966 127.692,36.5632 127,37.5C 124.57,39.4221 122.737,41.7554 121.5,44.5C 118.833,46.5 116.5,48.8333 114.5,51.5C 112.046,51.3205 109.879,51.9872 108,53.5C 107.235,53.4301 106.735,53.0967 106.5,52.5C 113.192,46.8039 119.858,41.1373 126.5,35.5 Z"/></g>
<g><path style="opacity:1" fill="#f87965" d="M 145.5,21.5 C 146.5,21.5 147.5,21.5 148.5,21.5C 148.259,24.0336 149.259,25.7002 151.5,26.5C 150.685,28.7537 150.019,31.0871 149.5,33.5C 151.508,37.5168 153.508,41.5168 155.5,45.5C 155.462,48.1813 156.129,50.6813 157.5,53C 156.991,54.1685 156.158,55.0019 155,55.5C 152.958,55.1821 150.791,55.0154 148.5,55C 146,53.8333 143.5,52.6667 141,51.5C 140.241,53.0629 139.074,54.0629 137.5,54.5C 141.833,46.154 143.833,37.154 143.5,27.5C 143.595,25.2143 144.262,23.2143 145.5,21.5 Z"/></g>
<g><path style="opacity:1" fill="#fbd9be" d="M 44.5,43.5 C 47.2919,43.4521 49.1253,44.7854 50,47.5C 50.6708,46.7476 51.5041,46.4142 52.5,46.5C 53.5676,47.4345 54.901,47.7678 56.5,47.5C 56.5,46.5 56.5,45.5 56.5,44.5C 55.5,44.5 54.5,44.5 53.5,44.5C 53.5,43.8333 53.8333,43.5 54.5,43.5C 60.5002,44.6937 65.6669,47.3603 70,51.5C 70.414,51.0426 70.914,50.7093 71.5,50.5C 73.837,53.9349 77.1703,55.2682 81.5,54.5C 78.5,58.1667 75.1667,61.5 71.5,64.5C 71.2914,63.0783 70.7914,61.745 70,60.5C 68.9188,62.7671 67.4188,62.9338 65.5,61C 66.7996,59.4212 66.4663,58.2545 64.5,57.5C 63.8333,57.5 63.1667,57.5 62.5,57.5C 62.6309,56.6236 62.2975,55.9569 61.5,55.5C 54.6463,52.9487 48.9796,48.9487 44.5,43.5 Z"/></g>
<g><path style="opacity:1" fill="#435c71" d="M 53.5,44.5 C 54.5,44.5 55.5,44.5 56.5,44.5C 56.5,45.5 56.5,46.5 56.5,47.5C 54.901,47.7678 53.5676,47.4345 52.5,46.5C 52.3284,45.5084 52.6618,44.8417 53.5,44.5 Z"/></g>
<g><path style="opacity:1" fill="#06264b" d="M 98.5,47.5 C 98.8333,47.5 99.1667,47.5 99.5,47.5C 101.119,49.5828 103.119,51.2495 105.5,52.5C 103.833,54.5 102.167,56.5 100.5,58.5C 97.1667,61.5 93.8333,64.5 90.5,67.5C 90.762,66.0222 90.4287,64.6888 89.5,63.5C 87.8333,64.5 86.5,65.8333 85.5,67.5C 84.8182,66.7573 84.1515,66.0906 83.5,65.5C 84.2613,60.066 87.2613,56.3994 92.5,54.5C 92.9766,53.069 93.6433,51.7357 94.5,50.5C 96.483,50.1852 97.8163,49.1852 98.5,47.5 Z"/></g>
<g><path style="opacity:1" fill="#fcefd9" d="M 27.5,45.5 C 27.8723,48.6169 27.8723,51.6169 27.5,54.5C 33.1711,57.0831 39.1711,58.4165 45.5,58.5C 45.5,58.8333 45.5,59.1667 45.5,59.5C 44.1667,60.1667 43.1667,61.1667 42.5,62.5C 41.7463,65.0227 41.0796,67.6894 40.5,70.5C 43.5949,72.6642 46.9282,73.9976 50.5,74.5C 46.0458,74.2758 41.7125,74.2758 37.5,74.5C 36.2011,73.91 35.3678,72.91 35,71.5C 34.6667,71.8333 34.3333,72.1667 34,72.5C 33.5439,71.2559 34.0439,70.4226 35.5,70C 34.09,69.6322 33.09,68.7989 32.5,67.5C 29.155,66.4892 26.155,65.1559 23.5,63.5C 22.1669,56.8237 23.5002,50.8237 27.5,45.5 Z"/></g>
<g><path style="opacity:1" fill="#0b1f42" d="M 121.5,44.5 C 122.598,45.6009 122.765,46.9343 122,48.5C 120.053,49.1097 118.219,49.9431 116.5,51C 118.056,51.7202 119.056,52.8868 119.5,54.5C 119.167,54.5 118.833,54.5 118.5,54.5C 116.345,53.4476 116.012,54.1143 117.5,56.5C 116.167,59.1667 114.833,61.8333 113.5,64.5C 111.955,65.4519 110.288,65.7852 108.5,65.5C 109.167,68.8332 107.833,70.8332 104.5,71.5C 103.571,72.6888 103.238,74.0222 103.5,75.5C 101.833,75.5 100.167,75.5 98.5,75.5C 98.6567,76.8734 98.49,78.2068 98,79.5C 96.1554,80.0495 94.6554,81.0495 93.5,82.5C 94.2427,83.1818 94.9094,83.8485 95.5,84.5C 94.1266,84.3433 92.7932,84.51 91.5,85C 92.056,85.3826 92.3893,85.8826 92.5,86.5C 90.7973,87.6602 90.1307,86.9935 90.5,84.5C 88.0971,84.448 85.7638,84.7814 83.5,85.5C 87.1667,81.5 90.8333,77.5 94.5,73.5C 98.2332,69.7728 101.566,65.7728 104.5,61.5C 108.167,58.5 111.5,55.1667 114.5,51.5C 116.5,48.8333 118.833,46.5 121.5,44.5 Z"/></g>
<g><path style="opacity:0.999" fill="#fa8a7f" d="M 155.5,45.5 C 159.356,51.5648 161.689,58.2314 162.5,65.5C 162.892,68.7216 162.392,71.7216 161,74.5C 160.07,72.4476 158.57,70.9476 156.5,70C 153.44,69.1524 150.44,68.1524 147.5,67C 146.707,65.9148 146.04,64.7481 145.5,63.5C 143.701,62.2121 142.035,62.2121 140.5,63.5C 139.833,63.8333 139.167,64.1667 138.5,64.5C 135.282,66.1614 131.949,67.8281 128.5,69.5C 126.419,72.7476 123.586,75.0809 120,76.5C 120.134,74.8107 120.634,73.144 121.5,71.5C 128.218,67.116 133.551,61.4493 137.5,54.5C 139.074,54.0629 140.241,53.0629 141,51.5C 143.5,52.6667 146,53.8333 148.5,55C 150.791,55.0154 152.958,55.1821 155,55.5C 156.158,55.0019 156.991,54.1685 157.5,53C 156.129,50.6813 155.462,48.1813 155.5,45.5 Z"/></g>
<g><path style="opacity:1" fill="#f1ab8f" d="M 114.5,51.5 C 111.5,55.1667 108.167,58.5 104.5,61.5C 103.128,60.4884 101.795,59.4884 100.5,58.5C 102.167,56.5 103.833,54.5 105.5,52.5C 105.833,52.5 106.167,52.5 106.5,52.5C 106.735,53.0967 107.235,53.4301 108,53.5C 109.879,51.9872 112.046,51.3205 114.5,51.5 Z"/></g>
<g><path style="opacity:1" fill="#2f4163" d="M 62.5,57.5 C 63.1667,57.5 63.8333,57.5 64.5,57.5C 64.719,58.675 64.3857,59.675 63.5,60.5C 61.5959,59.7434 61.2625,58.7434 62.5,57.5 Z"/></g>
<g><path style="opacity:1" fill="#092e57" d="M 98.5,47.5 C 97.8163,49.1852 96.483,50.1852 94.5,50.5C 93.6433,51.7357 92.9766,53.069 92.5,54.5C 87.2613,56.3994 84.2613,60.066 83.5,65.5C 81.8008,65.3398 80.1341,65.5065 78.5,66C 73.8668,71.1451 68.8668,75.6451 63.5,79.5C 63.1667,84.8333 62.8333,84.8333 62.5,79.5C 62.5,79.1667 62.5,78.8333 62.5,78.5C 62.5569,77.391 62.8902,76.391 63.5,75.5C 66.3993,72.0484 69.0659,68.3817 71.5,64.5C 75.1667,61.5 78.5,58.1667 81.5,54.5C 83.5,53.1667 85.1667,51.5 86.5,49.5C 87.8333,48.8333 88.8333,47.8333 89.5,46.5C 91.3046,45.7629 92.9713,44.7629 94.5,43.5C 96.188,44.5213 97.5213,45.8546 98.5,47.5 Z"/></g>
<g><path style="opacity:1" fill="#fbf5e3" d="M 23.5,63.5 C 26.155,65.1559 29.155,66.4892 32.5,67.5C 33.09,68.7989 34.09,69.6322 35.5,70C 34.0439,70.4226 33.5439,71.2559 34,72.5C 34.3333,72.1667 34.6667,71.8333 35,71.5C 35.3678,72.91 36.2011,73.91 37.5,74.5C 41.7125,74.2758 46.0458,74.2758 50.5,74.5C 52.3786,74.3932 52.7119,74.8932 51.5,76C 53.994,78.3932 53.3273,79.5599 49.5,79.5C 47.8333,79.5 46.1667,79.5 44.5,79.5C 42.1667,79.5 39.8333,79.5 37.5,79.5C 37.8432,77.5168 37.1765,76.1834 35.5,75.5C 34.5,75.5 33.5,75.5 32.5,75.5C 32.5,76.8333 32.5,78.1667 32.5,79.5C 31.9045,82.1125 31.0712,82.1125 30,79.5C 29.6924,80.3081 29.1924,80.9747 28.5,81.5C 26.7749,80.9851 25.1083,80.3184 23.5,79.5C 19.8828,74.8338 18.7161,69.5004 20,63.5C 20.9862,62.8288 22.1529,62.8288 23.5,63.5 Z"/></g>
<g><path style="opacity:1" fill="#19375a" d="M 45.5,59.5 C 48.6753,58.9093 51.0087,59.9093 52.5,62.5C 51.8927,69.2973 48.7261,70.9639 43,67.5C 42.5065,65.8659 42.3398,64.1992 42.5,62.5C 43.1667,61.1667 44.1667,60.1667 45.5,59.5 Z"/></g>
<g><path style="opacity:1" fill="#07274e" d="M 90.5,67.5 C 88.8333,69.5 87.1667,71.5 85.5,73.5C 78.8814,80.7853 71.8814,87.7853 64.5,94.5C 63.8243,93.3984 63.1577,92.3984 62.5,91.5C 61.7736,87.3205 61.7736,83.3205 62.5,79.5C 62.8333,84.8333 63.1667,84.8333 63.5,79.5C 68.8668,75.6451 73.8668,71.1451 78.5,66C 80.1341,65.5065 81.8008,65.3398 83.5,65.5C 84.1515,66.0906 84.8182,66.7573 85.5,67.5C 86.5,65.8333 87.8333,64.5 89.5,63.5C 90.4287,64.6888 90.762,66.0222 90.5,67.5 Z"/></g>
<g><path style="opacity:1" fill="#162143" d="M 140.5,63.5 C 141.833,63.5 143.167,63.5 144.5,63.5C 145.322,69.2093 143.489,70.5427 139,67.5C 138.517,66.552 138.351,65.552 138.5,64.5C 139.167,64.1667 139.833,63.8333 140.5,63.5 Z"/></g>
<g><path style="opacity:1" fill="#eecab8" d="M 100.5,58.5 C 101.795,59.4884 103.128,60.4884 104.5,61.5C 101.566,65.7728 98.2332,69.7728 94.5,73.5C 91.4215,74.3719 88.4215,74.3719 85.5,73.5C 87.1667,71.5 88.8333,69.5 90.5,67.5C 93.8333,64.5 97.1667,61.5 100.5,58.5 Z"/></g>
<g><path style="opacity:1" fill="#f7efdf" d="M 42.5,62.5 C 42.3398,64.1992 42.5065,65.8659 43,67.5C 48.7261,70.9639 51.8927,69.2973 52.5,62.5C 53.3138,64.631 53.8138,66.9644 54,69.5C 57.286,72.0818 60.4527,74.0818 63.5,75.5C 62.8902,76.391 62.5569,77.391 62.5,78.5C 61.2227,79.6936 60.5561,81.3603 60.5,83.5C 60.5716,85.5596 60.9049,87.5596 61.5,89.5C 59.9223,90.2978 58.2556,90.7978 56.5,91C 57.5,91.3333 58.5,91.6667 59.5,92C 57.5,92.6667 55.5,92.6667 53.5,92C 54.4581,90.8525 54.1247,89.8525 52.5,89C 53.1667,88.3333 53.8333,87.6667 54.5,87C 53.9011,85.3775 53.2344,83.8775 52.5,82.5C 51.1667,81.8333 50.1667,80.8333 49.5,79.5C 53.3273,79.5599 53.994,78.3932 51.5,76C 52.7119,74.8932 52.3786,74.3932 50.5,74.5C 46.9282,73.9976 43.5949,72.6642 40.5,70.5C 41.0796,67.6894 41.7463,65.0227 42.5,62.5 Z"/></g>
<g><path style="opacity:0.999" fill="#f79f9a" d="M 140.5,63.5 C 142.035,62.2121 143.701,62.2121 145.5,63.5C 146.04,64.7481 146.707,65.9148 147.5,67C 150.44,68.1524 153.44,69.1524 156.5,70C 158.57,70.9476 160.07,72.4476 161,74.5C 162.392,71.7216 162.892,68.7216 162.5,65.5C 163.434,66.5676 163.768,67.901 163.5,69.5C 163.5,72.8333 163.5,76.1667 163.5,79.5C 159.739,78.4528 156.406,76.6195 153.5,74C 145.578,73.6173 138.078,72.4507 131,70.5C 124.275,75.2357 117.775,80.2357 111.5,85.5C 109.883,86.038 108.216,86.3713 106.5,86.5C 111.528,81.1405 116.528,75.8071 121.5,70.5C 121.5,70.8333 121.5,71.1667 121.5,71.5C 120.634,73.144 120.134,74.8107 120,76.5C 123.586,75.0809 126.419,72.7476 128.5,69.5C 131.949,67.8281 135.282,66.1614 138.5,64.5C 138.351,65.552 138.517,66.552 139,67.5C 143.489,70.5427 145.322,69.2093 144.5,63.5C 143.167,63.5 141.833,63.5 140.5,63.5 Z"/></g>
<g><path style="opacity:0.999" fill="#fcb2ab" d="M 163.5,79.5 C 163.937,82.8066 163.27,85.8066 161.5,88.5C 158.39,86.5673 155.39,84.4006 152.5,82C 149.487,81.4978 146.487,80.9978 143.5,80.5C 139.785,77.0883 135.285,75.0883 130,74.5C 126.373,76.7096 122.54,79.5429 118.5,83C 116.35,84.4114 114.016,85.2447 111.5,85.5C 117.775,80.2357 124.275,75.2357 131,70.5C 138.078,72.4507 145.578,73.6173 153.5,74C 156.406,76.6195 159.739,78.4528 163.5,79.5 Z"/></g>
<g><path style="opacity:1" fill="#071737" d="M 118.5,54.5 C 121.461,56.9899 124.461,59.4899 127.5,62C 125.295,64.7022 123.295,67.5355 121.5,70.5C 116.528,75.8071 111.528,81.1405 106.5,86.5C 102.738,86.3089 99.0712,85.6422 95.5,84.5C 94.9094,83.8485 94.2427,83.1818 93.5,82.5C 94.6554,81.0495 96.1554,80.0495 98,79.5C 98.49,78.2068 98.6567,76.8734 98.5,75.5C 100.167,75.5 101.833,75.5 103.5,75.5C 103.238,74.0222 103.571,72.6888 104.5,71.5C 107.833,70.8332 109.167,68.8332 108.5,65.5C 110.288,65.7852 111.955,65.4519 113.5,64.5C 114.833,61.8333 116.167,59.1667 117.5,56.5C 116.012,54.1143 116.345,53.4476 118.5,54.5 Z"/></g>
<g><path style="opacity:1" fill="#f4c5be" d="M 143.5,80.5 C 142.5,80.5 141.5,80.5 140.5,80.5C 140.5,81.5 140.5,82.5 140.5,83.5C 140.918,84.2216 141.584,84.7216 142.5,85C 142.167,85.3333 141.833,85.6667 141.5,86C 144.71,86.395 147.21,87.895 149,90.5C 151.093,89.766 151.593,90.4327 150.5,92.5C 145.684,93.2269 140.684,93.2269 135.5,92.5C 132.718,87.6614 130.218,82.6614 128,77.5C 126.546,80.0711 125.38,82.7378 124.5,85.5C 122.291,84.4011 120.291,84.9011 118.5,87C 114.725,88.3697 110.891,89.5364 107,90.5C 103.917,89.1944 100.75,88.1944 97.5,87.5C 96.8933,87.6236 96.56,87.9569 96.5,88.5C 95.3951,87.3995 94.0618,86.7329 92.5,86.5C 92.3893,85.8826 92.056,85.3826 91.5,85C 92.7932,84.51 94.1266,84.3433 95.5,84.5C 99.0712,85.6422 102.738,86.3089 106.5,86.5C 108.216,86.3713 109.883,86.038 111.5,85.5C 114.016,85.2447 116.35,84.4114 118.5,83C 122.54,79.5429 126.373,76.7096 130,74.5C 135.285,75.0883 139.785,77.0883 143.5,80.5 Z"/></g>
<g><path style="opacity:1" fill="#212544" d="M 143.5,80.5 C 143.5,81.5 143.5,82.5 143.5,83.5C 142.5,83.5 141.5,83.5 140.5,83.5C 140.5,82.5 140.5,81.5 140.5,80.5C 141.5,80.5 142.5,80.5 143.5,80.5 Z"/></g>
<g><path style="opacity:1" fill="#163153" d="M 44.5,79.5 C 46.1667,79.5 47.8333,79.5 49.5,79.5C 50.1667,80.8333 51.1667,81.8333 52.5,82.5C 52.0268,86.6383 49.6935,88.6383 45.5,88.5C 41.9213,85.9233 41.588,82.9233 44.5,79.5 Z"/></g>
<g><path style="opacity:1" fill="#071b3c" d="M 92.5,86.5 C 94.0618,86.7329 95.3951,87.3995 96.5,88.5C 98.2303,89.0256 99.5637,90.0256 100.5,91.5C 96.6751,96.4852 92.0084,100.652 86.5,104C 80.4473,104.363 74.7806,103.196 69.5,100.5C 74.1667,95.5 78.8333,90.5 83.5,85.5C 85.7638,84.7814 88.0971,84.448 90.5,84.5C 90.1307,86.9935 90.7973,87.6602 92.5,86.5 Z"/></g>
<g><path style="opacity:1" fill="#f4f6eb" d="M 31.5,34.5 C 30.8902,35.391 30.5569,36.391 30.5,37.5C 30.4142,38.4959 30.7476,39.3292 31.5,40C 29.5578,41.3819 28.2245,43.2152 27.5,45.5C 23.5002,50.8237 22.1669,56.8237 23.5,63.5C 22.1529,62.8288 20.9862,62.8288 20,63.5C 18.7161,69.5004 19.8828,74.8338 23.5,79.5C 25.1083,80.3184 26.7749,80.9851 28.5,81.5C 29.1924,80.9747 29.6924,80.3081 30,79.5C 31.0712,82.1125 31.9045,82.1125 32.5,79.5C 35.9536,79.7332 36.9536,78.3999 35.5,75.5C 37.1765,76.1834 37.8432,77.5168 37.5,79.5C 39.8333,79.5 42.1667,79.5 44.5,79.5C 41.588,82.9233 41.9213,85.9233 45.5,88.5C 47.1585,89.1814 48.8251,90.0147 50.5,91C 48.765,91.6514 47.0983,91.4847 45.5,90.5C 39.1634,94.4034 32.8301,94.0701 26.5,89.5C 23.2154,90.291 20.3821,89.291 18,86.5C 17.6174,87.056 17.1174,87.3893 16.5,87.5C 15.4949,80.8129 15.4949,74.1462 16.5,67.5C 18.0409,54.763 23.0409,43.763 31.5,34.5 Z"/></g>
<g><path style="opacity:1" fill="#1a385e" d="M 35.5,75.5 C 36.9536,78.3999 35.9536,79.7332 32.5,79.5C 32.5,78.1667 32.5,76.8333 32.5,75.5C 33.5,75.5 34.5,75.5 35.5,75.5 Z"/></g>
<g><path style="opacity:1" fill="#0d1a3b" d="M 135.5,92.5 C 136.038,94.1172 136.371,95.7839 136.5,97.5C 134.527,102.324 130.861,104.324 125.5,103.5C 121.225,101.617 119.558,98.284 120.5,93.5C 121.308,90.5498 122.642,87.8831 124.5,85.5C 125.38,82.7378 126.546,80.0711 128,77.5C 130.218,82.6614 132.718,87.6614 135.5,92.5 Z"/></g>
<g><path style="opacity:0.947" fill="#f4bdbe" d="M 163.5,69.5 C 164.657,77.6563 164.823,85.9896 164,94.5C 163.768,95.7375 163.268,96.7375 162.5,97.5C 162.318,92.2063 161.818,92.2063 161,97.5C 160.667,96.1667 160.333,94.8333 160,93.5C 159.667,94.1667 159.333,94.8333 159,95.5C 158.333,94.1667 157.667,94.1667 157,95.5C 154.749,94.5877 152.583,93.5877 150.5,92.5C 151.593,90.4327 151.093,89.766 149,90.5C 147.21,87.895 144.71,86.395 141.5,86C 141.833,85.6667 142.167,85.3333 142.5,85C 141.584,84.7216 140.918,84.2216 140.5,83.5C 141.5,83.5 142.5,83.5 143.5,83.5C 143.5,82.5 143.5,81.5 143.5,80.5C 146.487,80.9978 149.487,81.4978 152.5,82C 155.39,84.4006 158.39,86.5673 161.5,88.5C 163.27,85.8066 163.937,82.8066 163.5,79.5C 163.5,76.1667 163.5,72.8333 163.5,69.5 Z"/></g>
<g><path style="opacity:1" fill="#ecf4ee" d="M 62.5,78.5 C 62.5,78.8333 62.5,79.1667 62.5,79.5C 61.7736,83.3205 61.7736,87.3205 62.5,91.5C 62.6602,93.1992 62.4935,94.8659 62,96.5C 61.0816,94.6243 59.5816,93.6243 57.5,93.5C 56.0413,93.4326 54.7079,93.7659 53.5,94.5C 51.6226,99.4006 48.1226,100.734 43,98.5C 41.2583,100.973 39.425,100.973 37.5,98.5C 36.5836,98.5427 35.9169,98.8761 35.5,99.5C 33.2834,100.227 30.9501,100.06 28.5,99C 28.3842,97.7318 28.0509,96.3985 27.5,95C 23.8626,94.6803 20.5293,93.5136 17.5,91.5C 18.7887,89.7807 18.4554,88.4474 16.5,87.5C 17.1174,87.3893 17.6174,87.056 18,86.5C 20.3821,89.291 23.2154,90.291 26.5,89.5C 32.8301,94.0701 39.1634,94.4034 45.5,90.5C 47.0983,91.4847 48.765,91.6514 50.5,91C 48.8251,90.0147 47.1585,89.1814 45.5,88.5C 49.6935,88.6383 52.0268,86.6383 52.5,82.5C 53.2344,83.8775 53.9011,85.3775 54.5,87C 53.8333,87.6667 53.1667,88.3333 52.5,89C 54.1247,89.8525 54.4581,90.8525 53.5,92C 55.5,92.6667 57.5,92.6667 59.5,92C 58.5,91.6667 57.5,91.3333 56.5,91C 58.2556,90.7978 59.9223,90.2978 61.5,89.5C 60.9049,87.5596 60.5716,85.5596 60.5,83.5C 60.5561,81.3603 61.2227,79.6936 62.5,78.5 Z"/></g>
<g><path style="opacity:1" fill="#bec7d6" d="M 123.5,90.5 C 124.788,92.0348 124.788,93.7015 123.5,95.5C 122.334,93.8327 122.334,92.166 123.5,90.5 Z"/></g>
<g><path style="opacity:1" fill="#e1e7e6" d="M 85.5,73.5 C 88.4215,74.3719 91.4215,74.3719 94.5,73.5C 90.8333,77.5 87.1667,81.5 83.5,85.5C 78.8333,90.5 74.1667,95.5 69.5,100.5C 68.8333,101.167 68.1667,101.833 67.5,102.5C 63.5442,100.212 60.2109,97.2119 57.5,93.5C 59.5816,93.6243 61.0816,94.6243 62,96.5C 62.4935,94.8659 62.6602,93.1992 62.5,91.5C 63.1577,92.3984 63.8243,93.3984 64.5,94.5C 71.8814,87.7853 78.8814,80.7853 85.5,73.5 Z"/></g>
<g><path style="opacity:1" fill="#eacbd1" d="M 150.5,92.5 C 152.583,93.5877 154.749,94.5877 157,95.5C 157.667,94.1667 158.333,94.1667 159,95.5C 159.333,94.8333 159.667,94.1667 160,93.5C 160.333,94.8333 160.667,96.1667 161,97.5C 161.818,92.2063 162.318,92.2063 162.5,97.5C 162.5,97.8333 162.5,98.1667 162.5,98.5C 161.069,99.7804 160.402,101.447 160.5,103.5C 156.57,102.556 152.737,101.222 149,99.5C 145.168,100.916 141.501,100.583 138,98.5C 136.913,100.932 136.413,100.598 136.5,97.5C 136.371,95.7839 136.038,94.1172 135.5,92.5C 140.684,93.2269 145.684,93.2269 150.5,92.5 Z"/></g>
<g><path style="opacity:1" fill="#f1e2db" d="M 124.5,85.5 C 122.642,87.8831 121.308,90.5498 120.5,93.5C 119.549,94.9187 119.216,96.5853 119.5,98.5C 117.5,98.5 115.5,98.5 113.5,98.5C 113.859,102.926 115.693,103.593 119,100.5C 120.23,101.275 120.563,102.275 120,103.5C 118.026,103.374 115.859,103.208 113.5,103C 110.127,100.535 106.46,100.368 102.5,102.5C 102.167,102 101.833,101.5 101.5,101C 103.278,98.775 103.778,96.275 103,93.5C 102.727,95.1012 102.227,96.6012 101.5,98C 100.275,98.5628 99.2752,98.2295 98.5,97C 100.606,95.3629 101.272,93.5295 100.5,91.5C 99.5637,90.0256 98.2303,89.0256 96.5,88.5C 96.56,87.9569 96.8933,87.6236 97.5,87.5C 100.75,88.1944 103.917,89.1944 107,90.5C 110.891,89.5364 114.725,88.3697 118.5,87C 120.291,84.9011 122.291,84.4011 124.5,85.5 Z"/></g>
<g><path style="opacity:1" fill="#062247" d="M 57.5,93.5 C 60.2109,97.2119 63.5442,100.212 67.5,102.5C 69.8333,105.167 72.1667,107.833 74.5,110.5C 74.573,112.027 73.9063,113.027 72.5,113.5C 68.6689,113.249 65.3356,114.416 62.5,117C 61.8617,118.707 61.8617,120.54 62.5,122.5C 61.3991,123.598 60.0657,123.765 58.5,123C 54.5724,118.564 50.2391,114.731 45.5,111.5C 45.5,110.167 45.5,108.833 45.5,107.5C 47.604,107.799 49.604,107.466 51.5,106.5C 53.2558,102.712 53.9225,98.7121 53.5,94.5C 54.7079,93.7659 56.0413,93.4326 57.5,93.5 Z"/></g>
<g><path style="opacity:0.999" fill="#d4f2f2" d="M 16.5,67.5 C 15.4949,74.1462 15.4949,80.8129 16.5,87.5C 18.4554,88.4474 18.7887,89.7807 17.5,91.5C 20.5293,93.5136 23.8626,94.6803 27.5,95C 28.0509,96.3985 28.3842,97.7318 28.5,99C 30.9501,100.06 33.2834,100.227 35.5,99.5C 35.9169,98.8761 36.5836,98.5427 37.5,98.5C 39.425,100.973 41.2583,100.973 43,98.5C 48.1226,100.734 51.6226,99.4006 53.5,94.5C 53.9225,98.7121 53.2558,102.712 51.5,106.5C 49.604,107.466 47.604,107.799 45.5,107.5C 45.5,108.833 45.5,110.167 45.5,111.5C 44.7978,112.116 43.7978,112.116 42.5,111.5C 40.9731,111.427 39.9731,112.094 39.5,113.5C 33.5999,114.344 27.9332,115.011 22.5,115.5C 14.8731,100.077 12.8731,84.0767 16.5,67.5 Z"/></g>
<g><path style="opacity:1" fill="#1c3c5e" d="M 35.5,99.5 C 36.5,99.5 37.5,99.5 38.5,99.5C 38.5,100.833 38.5,102.167 38.5,103.5C 37.5,103.5 36.5,103.5 35.5,103.5C 35.5,102.167 35.5,100.833 35.5,99.5 Z"/></g>
<g><path style="opacity:1" fill="#d0e0e8" d="M 100.5,91.5 C 101.272,93.5295 100.606,95.3629 98.5,97C 99.2752,98.2295 100.275,98.5628 101.5,98C 102.227,96.6012 102.727,95.1012 103,93.5C 103.778,96.275 103.278,98.775 101.5,101C 101.833,101.5 102.167,102 102.5,102.5C 106.46,100.368 110.127,100.535 113.5,103C 115.859,103.208 118.026,103.374 120,103.5C 120.563,102.275 120.23,101.275 119,100.5C 115.693,103.593 113.859,102.926 113.5,98.5C 115.5,98.5 117.5,98.5 119.5,98.5C 119.216,96.5853 119.549,94.9187 120.5,93.5C 119.558,98.284 121.225,101.617 125.5,103.5C 125.714,105.144 125.38,106.644 124.5,108C 127.426,108.218 130.26,108.718 133,109.5C 136.406,108.293 139.906,107.793 143.5,108C 141.779,108.739 140.113,109.573 138.5,110.5C 143.721,111.624 143.721,112.458 138.5,113C 139.878,114.334 141.211,114.501 142.5,113.5C 139.665,115.413 136.332,116.413 132.5,116.5C 130.5,113.833 128.5,113.833 126.5,116.5C 120.925,117.452 115.259,117.786 109.5,117.5C 107.057,113.025 104.89,108.358 103,103.5C 100.903,108.016 98.7365,112.35 96.5,116.5C 90.501,115.966 84.501,115.299 78.5,114.5C 77.4787,112.812 76.1454,111.479 74.5,110.5C 72.1667,107.833 69.8333,105.167 67.5,102.5C 68.1667,101.833 68.8333,101.167 69.5,100.5C 74.7806,103.196 80.4473,104.363 86.5,104C 92.0084,100.652 96.6751,96.4852 100.5,91.5 Z"/></g>
<g><path style="opacity:1" fill="#ced0de" d="M 136.5,97.5 C 136.413,100.598 136.913,100.932 138,98.5C 141.501,100.583 145.168,100.916 149,99.5C 152.737,101.222 156.57,102.556 160.5,103.5C 160.402,101.447 161.069,99.7804 162.5,98.5C 161.561,104.619 159.561,110.286 156.5,115.5C 154.874,115.938 153.207,116.272 151.5,116.5C 148.87,114.721 145.87,113.721 142.5,113.5C 141.211,114.501 139.878,114.334 138.5,113C 143.721,112.458 143.721,111.624 138.5,110.5C 140.113,109.573 141.779,108.739 143.5,108C 139.906,107.793 136.406,108.293 133,109.5C 130.26,108.718 127.426,108.218 124.5,108C 125.38,106.644 125.714,105.144 125.5,103.5C 130.861,104.324 134.527,102.324 136.5,97.5 Z"/></g>
<g><path style="opacity:1" fill="#081b3e" d="M 109.5,117.5 C 109.5,117.833 109.5,118.167 109.5,118.5C 110.037,125.745 106.704,128.578 99.5,127C 97.9297,125.603 96.5964,124.103 95.5,122.5C 95.3253,120.379 95.6586,118.379 96.5,116.5C 98.7365,112.35 100.903,108.016 103,103.5C 104.89,108.358 107.057,113.025 109.5,117.5 Z"/></g>
<g><path style="opacity:1" fill="#afe5f1" d="M 74.5,110.5 C 76.1454,111.479 77.4787,112.812 78.5,114.5C 84.501,115.299 90.501,115.966 96.5,116.5C 95.6586,118.379 95.3253,120.379 95.5,122.5C 93.4437,123.216 91.277,123.883 89,124.5C 85.5723,123.604 82.0723,122.938 78.5,122.5C 77.9283,119.756 76.2617,118.923 73.5,120C 71.9632,121.11 71.2965,122.61 71.5,124.5C 69.9263,123.016 68.593,121.349 67.5,119.5C 69.1139,117.544 70.7806,115.544 72.5,113.5C 73.9063,113.027 74.573,112.027 74.5,110.5 Z"/></g>
<g><path style="opacity:1" fill="#0b1e44" d="M 132.5,116.5 C 132.299,120.35 130.466,121.35 127,119.5C 126.517,118.552 126.351,117.552 126.5,116.5C 128.5,113.833 130.5,113.833 132.5,116.5 Z"/></g>
<g><path style="opacity:1" fill="#9be9f6" d="M 39.5,113.5 C 40.7102,115.552 41.7102,117.718 42.5,120C 42.6134,121.699 41.9468,122.866 40.5,123.5C 36.3266,122.198 32.3266,122.865 28.5,125.5C 26.1023,122.429 24.1023,119.095 22.5,115.5C 27.9332,115.011 33.5999,114.344 39.5,113.5 Z"/></g>
<g><path style="opacity:1" fill="#9dcfec" d="M 142.5,113.5 C 145.87,113.721 148.87,114.721 151.5,116.5C 153.207,116.272 154.874,115.938 156.5,115.5C 156.107,117.284 155.441,118.95 154.5,120.5C 149.118,121.627 143.785,122.96 138.5,124.5C 133.902,122.199 129.569,122.365 125.5,125C 120.833,125.667 116.167,125.667 111.5,125C 110.883,122.723 110.216,120.556 109.5,118.5C 109.5,118.167 109.5,117.833 109.5,117.5C 115.259,117.786 120.925,117.452 126.5,116.5C 126.351,117.552 126.517,118.552 127,119.5C 130.466,121.35 132.299,120.35 132.5,116.5C 136.332,116.413 139.665,115.413 142.5,113.5 Z"/></g>
<g><path style="opacity:1" fill="#061f45" d="M 42.5,111.5 C 47.9814,116.149 52.9814,121.316 57.5,127C 57.3865,128.28 56.7199,129.113 55.5,129.5C 52.5955,127.368 49.5955,127.034 46.5,128.5C 43.9108,127.581 41.9108,125.914 40.5,123.5C 41.9468,122.866 42.6134,121.699 42.5,120C 41.7102,117.718 40.7102,115.552 39.5,113.5C 39.9731,112.094 40.9731,111.427 42.5,111.5 Z"/></g>
<g><path style="opacity:1" fill="#7ad7f2" d="M 109.5,118.5 C 110.216,120.556 110.883,122.723 111.5,125C 116.167,125.667 120.833,125.667 125.5,125C 129.569,122.365 133.902,122.199 138.5,124.5C 136.107,125.21 133.607,125.877 131,126.5C 129.869,125.396 129.035,125.729 128.5,127.5C 126.955,128.452 125.288,128.785 123.5,128.5C 112.924,129.533 102.424,130.866 92,132.5C 84.7322,131.006 77.3989,130.673 70,131.5C 68.1878,131.507 66.6878,130.84 65.5,129.5C 66.0973,126.029 66.764,122.695 67.5,119.5C 68.593,121.349 69.9263,123.016 71.5,124.5C 73.1261,126.243 75.1261,126.743 77.5,126C 78.3366,124.989 78.67,123.822 78.5,122.5C 82.0723,122.938 85.5723,123.604 89,124.5C 91.277,123.883 93.4437,123.216 95.5,122.5C 96.5964,124.103 97.9297,125.603 99.5,127C 106.704,128.578 110.037,125.745 109.5,118.5 Z"/></g>
<g><path style="opacity:1" fill="#0d2849" d="M 78.5,122.5 C 78.67,123.822 78.3366,124.989 77.5,126C 75.1261,126.743 73.1261,126.243 71.5,124.5C 71.2965,122.61 71.9632,121.11 73.5,120C 76.2617,118.923 77.9283,119.756 78.5,122.5 Z"/></g>
<g><path style="opacity:1" fill="#6fc5ee" d="M 154.5,120.5 C 151.229,126.102 147.229,131.102 142.5,135.5C 142.092,134.357 141.425,133.357 140.5,132.5C 138.253,133.374 135.92,133.708 133.5,133.5C 130.843,132.021 127.51,131.355 123.5,131.5C 123.5,130.5 123.5,129.5 123.5,128.5C 125.288,128.785 126.955,128.452 128.5,127.5C 129.035,125.729 129.869,125.396 131,126.5C 133.607,125.877 136.107,125.21 138.5,124.5C 143.785,122.96 149.118,121.627 154.5,120.5 Z"/></g>
<g><path style="opacity:1" fill="#40b1de" d="M 42.5,111.5 C 43.7978,112.116 44.7978,112.116 45.5,111.5C 50.2391,114.731 54.5724,118.564 58.5,123C 60.0657,123.765 61.3991,123.598 62.5,122.5C 64.0348,125.33 63.0348,126.663 59.5,126.5C 59.5,128.833 59.5,131.167 59.5,133.5C 54.9275,134.231 50.9275,133.231 47.5,130.5C 46.6618,130.158 46.3284,129.492 46.5,128.5C 49.5955,127.034 52.5955,127.368 55.5,129.5C 56.7199,129.113 57.3865,128.28 57.5,127C 52.9814,121.316 47.9814,116.149 42.5,111.5 Z"/></g>
<g><path style="opacity:1" fill="#50dbf8" d="M 40.5,123.5 C 41.9108,125.914 43.9108,127.581 46.5,128.5C 46.3284,129.492 46.6618,130.158 47.5,130.5C 47.7329,132.062 48.3995,133.395 49.5,134.5C 48.8478,135.725 47.6811,136.392 46,136.5C 42.4929,135.247 38.9929,135.247 35.5,136.5C 32.3987,135.753 29.7321,134.419 27.5,132.5C 27.8769,130.742 28.5435,129.075 29.5,127.5C 29.1373,126.817 28.8039,126.15 28.5,125.5C 32.3266,122.865 36.3266,122.198 40.5,123.5 Z"/></g>
<g><path style="opacity:1" fill="#4bd1f5" d="M 72.5,113.5 C 70.7806,115.544 69.1139,117.544 67.5,119.5C 66.764,122.695 66.0973,126.029 65.5,129.5C 66.6878,130.84 68.1878,131.507 70,131.5C 77.3989,130.673 84.7322,131.006 92,132.5C 102.424,130.866 112.924,129.533 123.5,128.5C 123.5,129.5 123.5,130.5 123.5,131.5C 121.833,131.5 120.167,131.5 118.5,131.5C 118.5,132.5 118.5,133.5 118.5,134.5C 107.864,136.683 97.1972,137.683 86.5,137.5C 85.5029,136.287 84.5029,136.454 83.5,138C 75.7116,138.397 68.2116,138.897 61,139.5C 56.6473,138.888 52.814,137.221 49.5,134.5C 48.3995,133.395 47.7329,132.062 47.5,130.5C 50.9275,133.231 54.9275,134.231 59.5,133.5C 59.5,131.167 59.5,128.833 59.5,126.5C 63.0348,126.663 64.0348,125.33 62.5,122.5C 61.8617,120.54 61.8617,118.707 62.5,117C 65.3356,114.416 68.6689,113.249 72.5,113.5 Z"/></g>
<g><path style="opacity:1" fill="#26d0f9" d="M 27.5,132.5 C 29.7321,134.419 32.3987,135.753 35.5,136.5C 38.9929,135.247 42.4929,135.247 46,136.5C 47.6811,136.392 48.8478,135.725 49.5,134.5C 52.814,137.221 56.6473,138.888 61,139.5C 68.2116,138.897 75.7116,138.397 83.5,138C 84.5029,136.454 85.5029,136.287 86.5,137.5C 86.5,137.833 86.5,138.167 86.5,138.5C 85.5,138.833 84.8333,139.5 84.5,140.5C 83.8333,140.5 83.5,140.833 83.5,141.5C 81.7571,142.086 79.9238,142.419 78,142.5C 67.0202,140.478 56.1869,140.478 45.5,142.5C 41.6041,141.36 37.7708,141.36 34,142.5C 31.962,140.928 29.6287,139.928 27,139.5C 26.5065,137.866 26.3398,136.199 26.5,134.5C 26.3284,133.508 26.6618,132.842 27.5,132.5 Z"/></g>
<g><path style="opacity:1" fill="#1cc5f4" d="M 26.5,134.5 C 26.3398,136.199 26.5065,137.866 27,139.5C 29.6287,139.928 31.962,140.928 34,142.5C 37.7708,141.36 41.6041,141.36 45.5,142.5C 56.1869,140.478 67.0202,140.478 78,142.5C 79.9238,142.419 81.7571,142.086 83.5,141.5C 83.4392,144.05 82.1059,145.55 79.5,146C 76.905,146.226 74.405,146.726 72,147.5C 71.586,147.043 71.086,146.709 70.5,146.5C 69.452,147.383 68.2853,148.05 67,148.5C 64.2735,148.128 61.4401,147.128 58.5,145.5C 57.7065,145.931 56.8732,146.265 56,146.5C 53.7903,144.889 51.2903,144.222 48.5,144.5C 39.6474,143.558 31.6474,145.892 24.5,151.5C 23.343,148.216 23.1764,144.882 24,141.5C 24.1558,138.809 24.9891,136.476 26.5,134.5 Z"/></g>
<g><path style="opacity:1" fill="#34c5f3" d="M 123.5,131.5 C 127.51,131.355 130.843,132.021 133.5,133.5C 133.389,134.117 133.056,134.617 132.5,135C 124.762,137.081 117.095,139.415 109.5,142C 103.751,142.785 98.084,142.618 92.5,141.5C 92.5858,140.504 92.2524,139.671 91.5,139C 89.8659,138.506 88.1992,138.34 86.5,138.5C 86.5,138.167 86.5,137.833 86.5,137.5C 97.1972,137.683 107.864,136.683 118.5,134.5C 118.5,133.5 118.5,132.5 118.5,131.5C 120.167,131.5 121.833,131.5 123.5,131.5 Z"/></g>
<g><path style="opacity:1" fill="#061c40" d="M 86.5,138.5 C 88.1992,138.34 89.8659,138.506 91.5,139C 92.2524,139.671 92.5858,140.504 92.5,141.5C 91.018,145.829 88.518,146.496 85,143.5C 84.5172,142.552 84.3505,141.552 84.5,140.5C 84.8333,139.5 85.5,138.833 86.5,138.5 Z"/></g>
<g><path style="opacity:1" fill="#1ab9f1" d="M 142.5,135.5 C 138.432,139.899 133.765,143.565 128.5,146.5C 118.852,144.703 109.352,145.703 100,149.5C 99.228,149.355 98.5613,149.022 98,148.5C 90.5864,149.353 83.2531,150.686 76,152.5C 70.7254,151.714 65.2254,151.047 59.5,150.5C 55.349,149.34 51.6823,147.34 48.5,144.5C 51.2903,144.222 53.7903,144.889 56,146.5C 56.8732,146.265 57.7065,145.931 58.5,145.5C 61.4401,147.128 64.2735,148.128 67,148.5C 68.2853,148.05 69.452,147.383 70.5,146.5C 71.086,146.709 71.586,147.043 72,147.5C 74.405,146.726 76.905,146.226 79.5,146C 82.1059,145.55 83.4392,144.05 83.5,141.5C 83.5,140.833 83.8333,140.5 84.5,140.5C 84.3505,141.552 84.5172,142.552 85,143.5C 88.518,146.496 91.018,145.829 92.5,141.5C 98.084,142.618 103.751,142.785 109.5,142C 117.095,139.415 124.762,137.081 132.5,135C 133.056,134.617 133.389,134.117 133.5,133.5C 135.92,133.708 138.253,133.374 140.5,132.5C 141.425,133.357 142.092,134.357 142.5,135.5 Z"/></g>
<g><path style="opacity:1" fill="#07abf0" d="M 128.5,146.5 C 124.498,149.276 120.165,151.276 115.5,152.5C 112.61,152.278 109.943,152.945 107.5,154.5C 105.678,153.571 104.345,154.238 103.5,156.5C 101.482,155.187 100.315,155.853 100,158.5C 99.7508,157.376 99.2508,156.376 98.5,155.5C 94.8878,156.608 91.3878,157.942 88,159.5C 84.6991,159.501 81.1991,159.334 77.5,159C 75.6667,158.5 74.5,157.333 74,155.5C 73.0138,156.171 71.8471,156.171 70.5,155.5C 66.65,154.072 62.9834,152.406 59.5,150.5C 65.2254,151.047 70.7254,151.714 76,152.5C 83.2531,150.686 90.5864,149.353 98,148.5C 98.5613,149.022 99.228,149.355 100,149.5C 109.352,145.703 118.852,144.703 128.5,146.5 Z"/></g>
<g><path style="opacity:1" fill="#0a98eb" d="M 115.5,152.5 C 109.137,155.026 103.804,159.026 99.5,164.5C 98.5041,161.431 96.8374,160.931 94.5,163C 95.2583,164.364 94.7583,165.531 93,166.5C 91.149,164.219 89.4823,164.219 88,166.5C 85.6194,165.565 83.1194,165.232 80.5,165.5C 77.4729,161.806 74.1396,158.473 70.5,155.5C 71.8471,156.171 73.0138,156.171 74,155.5C 74.5,157.333 75.6667,158.5 77.5,159C 81.1991,159.334 84.6991,159.501 88,159.5C 91.3878,157.942 94.8878,156.608 98.5,155.5C 99.2508,156.376 99.7508,157.376 100,158.5C 100.315,155.853 101.482,155.187 103.5,156.5C 104.345,154.238 105.678,153.571 107.5,154.5C 109.943,152.945 112.61,152.278 115.5,152.5 Z"/></g>
<g><path style="opacity:0.997" fill="#127ee1" d="M 99.5,164.5 C 97.0685,168.66 93.7352,171.993 89.5,174.5C 86.1727,171.839 83.1727,168.839 80.5,165.5C 83.1194,165.232 85.6194,165.565 88,166.5C 89.4823,164.219 91.149,164.219 93,166.5C 94.7583,165.531 95.2583,164.364 94.5,163C 96.8374,160.931 98.5041,161.431 99.5,164.5 Z"/></g>
</svg>
